<svg
    width="17"
    height="13"
    viewBox="0 0 17 13"
    fill="none"
    xmlns="http://www.w3.org/2000/svg"
>
    <g clip-path="url(#arrow-right-clip)">
        <path
            fill-rule="evenodd"
            clip-rule="evenodd"
            d="M4.19562 0.78125H13.3584C13.5771 0.78125 13.779 0.886045 13.8881 1.05606L16.5576 5.21853C16.696 5.4344 16.6549 5.70685 16.4575 5.88189L9.10955 12.3956C8.87152 12.6066 8.48862 12.6066 8.25059 12.3956L0.912661 5.89069C0.71061 5.71158 0.672775 5.43117 0.821353 5.21397L3.67484 1.04271C3.78597 0.880253 3.98318 0.78125 4.19562 0.78125ZM12.1754 2.63965V3.80757H9.56525V4.61733C11.3984 4.70386 12.7738 5.05928 12.784 5.48528L12.7839 6.37334C12.7737 6.79934 11.3984 7.15474 9.56525 7.24128V9.22851H7.83209V7.24128C5.99892 7.15474 4.62355 6.79934 4.61335 6.37334L4.61342 5.48528C4.62361 5.05928 5.99892 4.70386 7.83209 4.61733V3.80757H5.22197V2.63965H12.1754ZM8.69867 6.63117C10.655 6.63117 12.2901 6.33064 12.6903 5.9293C12.3509 5.58897 11.1235 5.32113 9.56525 5.24757V6.09538C9.28594 6.10857 8.99601 6.11552 8.69867 6.11552C8.40131 6.11552 8.11138 6.10857 7.83209 6.09538V5.24757C6.2738 5.32113 5.04637 5.58897 4.70703 5.9293C5.1072 6.33064 6.74234 6.63117 8.69867 6.63117Z"
            fill="currentColor"
        ></path>
    </g>
    <defs>
        <clipPath id="arrow-right-clip">
            <rect
                width="16"
                height="12"
                fill="white"
                transform="translate(0.666626 0.666504)"
            ></rect>
        </clipPath>
    </defs>
</svg>
