<svg
    width="24"
    height="24"
    viewBox="0 0 24 24"
    fill="none"
    xmlns="http://www.w3.org/2000/svg"
>
    <path
        d="M15.998 6.99951L15.998 4.99951L13.998 4.99951L13.998 6.99951L11.998 6.99951L11.998 8.99951L9.99805 8.99951L9.99805 10.9995L7.99805 10.9995L7.99805 12.9995L9.99805 12.9995L9.99805 14.9995L11.998 14.9995L11.998 16.9995L13.998 16.9995L13.998 18.9995L15.998 18.9995L15.998 16.9995L13.998 16.9995L13.998 14.9995L11.998 14.9995L11.998 12.9995L9.99805 12.9995L9.99805 10.9995L11.998 10.9995L11.998 8.99951L13.998 8.99951L13.998 6.99951L15.998 6.99951Z"
        fill="currentColor"
    ></path>
</svg>
