<svg
    width="32"
    height="32"
    viewBox="0 0 32 32"
    fill="none"
    xmlns="http://www.w3.org/2000/svg"
>
    <path
        d="M7.51476 22.5997L9.40038 24.4853L20.7141 13.1716L22.5997 15.0573L24.4853 13.1716L22.5997 11.286L24.4853 9.4004L22.5997 7.51478L20.7141 9.4004L18.8285 7.51478L16.9429 9.4004L18.8285 11.286L7.51476 22.5997ZM13.1716 9.4004L15.0572 7.51478L16.9429 9.4004L15.0572 11.286L13.1716 9.4004ZM13.1716 9.4004L11.286 11.286L9.40038 9.4004L11.286 7.51478L13.1716 9.4004ZM22.5997 18.8285L24.4853 16.9429L22.5997 15.0573L20.7141 16.9429L22.5997 18.8285ZM22.5997 18.8285L20.7141 20.7141L22.5997 22.5997L24.4853 20.7141L22.5997 18.8285Z"
        fill="currentColor"
    ></path>
</svg>
