<svg
    width="16"
    height="17"
    viewBox="0 0 16 17"
    fill="none"
    xmlns="http://www.w3.org/2000/svg"
>
    <path
        d="M7.99992 2C11.6819 2 14.6666 4.98467 14.6666 8.66667C14.6666 12.3487 11.6819 15.3333 7.99992 15.3333C4.31792 15.3333 1.33325 12.3487 1.33325 8.66667C1.33325 4.98467 4.31792 2 7.99992 2ZM7.99992 4.66667C7.82311 4.66667 7.65354 4.7369 7.52851 4.86193C7.40349 4.98695 7.33325 5.15652 7.33325 5.33333V8.66667C7.33329 8.84346 7.40355 9.013 7.52858 9.138L9.52858 11.138C9.65432 11.2594 9.82272 11.3266 9.99752 11.3251C10.1723 11.3236 10.3395 11.2535 10.4631 11.1299C10.5867 11.0063 10.6568 10.8391 10.6584 10.6643C10.6599 10.4895 10.5927 10.3211 10.4713 10.1953L8.66658 8.39067V5.33333C8.66658 5.15652 8.59635 4.98695 8.47132 4.86193C8.3463 4.7369 8.17673 4.66667 7.99992 4.66667Z"
        fill="currentColor"
    ></path>
</svg>
