<svg
    width="16"
    height="16"
    viewBox="0 0 16 16"
    fill="none"
    xmlns="http://www.w3.org/2000/svg"
>
    <path
        d="M8.00016 14.6666C4.31816 14.6666 1.3335 11.6819 1.3335 7.99992C1.3335 4.31792 4.31816 1.33325 8.00016 1.33325C11.6822 1.33325 14.6668 4.31792 14.6668 7.99992C14.6668 11.6819 11.6822 14.6666 8.00016 14.6666ZM8.00016 13.3333C9.41465 13.3333 10.7712 12.7713 11.7714 11.7712C12.7716 10.771 13.3335 9.41441 13.3335 7.99992C13.3335 6.58543 12.7716 5.22888 11.7714 4.22868C10.7712 3.22849 9.41465 2.66659 8.00016 2.66659C6.58567 2.66659 5.22912 3.22849 4.22893 4.22868C3.22873 5.22888 2.66683 6.58543 2.66683 7.99992C2.66683 9.41441 3.22873 10.771 4.22893 11.7712C5.22912 12.7713 6.58567 13.3333 8.00016 13.3333ZM7.3335 9.99992H8.66683V11.3333H7.3335V9.99992ZM8.66683 8.90325V9.33325H7.3335V8.33325C7.3335 8.15644 7.40373 7.98687 7.52876 7.86185C7.65378 7.73682 7.82335 7.66658 8.00016 7.66658C8.18955 7.66657 8.37504 7.61278 8.53505 7.51147C8.69506 7.41016 8.82301 7.26549 8.90401 7.09431C8.98501 6.92312 9.01574 6.73245 8.99262 6.54448C8.96949 6.35651 8.89347 6.17897 8.77338 6.03253C8.6533 5.88608 8.4941 5.77674 8.31431 5.71723C8.13452 5.65772 7.94152 5.6505 7.75778 5.69639C7.57404 5.74228 7.40711 5.83941 7.27641 5.97646C7.14571 6.11352 7.05662 6.28487 7.0195 6.47059L5.7115 6.20858C5.79258 5.80331 5.97984 5.42683 6.25411 5.11764C6.52838 4.80845 6.87984 4.57764 7.27256 4.4488C7.66527 4.31996 8.08515 4.29771 8.48928 4.38433C8.89341 4.47095 9.2673 4.66333 9.57271 4.9418C9.87812 5.22028 10.1041 5.57486 10.2276 5.96929C10.351 6.36373 10.3675 6.78388 10.2754 7.18679C10.1833 7.5897 9.9858 7.96092 9.70318 8.26249C9.42055 8.56407 9.06292 8.78519 8.66683 8.90325Z"
        fill="currentColor"
    ></path>
</svg>
