<svg
    width="16"
    height="16"
    viewBox="0 0 16 16"
    fill="none"
    xmlns="http://www.w3.org/2000/svg"
>
    <path
        d="M12.8469 3.55341C11.9602 3.14008 11.0002 2.84008 10.0002 2.66675C9.98266 2.667 9.96588 2.67419 9.95357 2.68675C9.83357 2.90675 9.69357 3.19341 9.60024 3.41341C8.53957 3.25352 7.46092 3.25352 6.40024 3.41341C6.30691 3.18675 6.16691 2.90675 6.04024 2.68675C6.03357 2.67341 6.01357 2.66675 5.99357 2.66675C4.99357 2.84008 4.04024 3.14008 3.14691 3.55341C3.14024 3.55341 3.13357 3.56008 3.12691 3.56675C1.31357 6.28008 0.813574 8.92008 1.06024 11.5334C1.06024 11.5467 1.06691 11.5601 1.08024 11.5667C2.28024 12.4467 3.43357 12.9801 4.57357 13.3334C4.59357 13.3401 4.61357 13.3334 4.62024 13.3201C4.88691 12.9534 5.12691 12.5667 5.33357 12.1601C5.34691 12.1334 5.33357 12.1067 5.30691 12.1001C4.92691 11.9534 4.56691 11.7801 4.21357 11.5801C4.18691 11.5667 4.18691 11.5267 4.20691 11.5067C4.28024 11.4534 4.35357 11.3934 4.42691 11.3401C4.44024 11.3267 4.46024 11.3267 4.47357 11.3334C6.76691 12.3801 9.24024 12.3801 11.5069 11.3334C11.5202 11.3267 11.5402 11.3267 11.5536 11.3401C11.6269 11.4001 11.7002 11.4534 11.7736 11.5134C11.8002 11.5334 11.8002 11.5734 11.7669 11.5867C11.4202 11.7934 11.0536 11.9601 10.6736 12.1067C10.6469 12.1134 10.6402 12.1467 10.6469 12.1667C10.8602 12.5734 11.1002 12.9601 11.3602 13.3267C11.3802 13.3334 11.4002 13.3401 11.4202 13.3334C12.5669 12.9801 13.7202 12.4467 14.9202 11.5667C14.9336 11.5601 14.9402 11.5467 14.9402 11.5334C15.2336 8.51341 14.4536 5.89341 12.8736 3.56675C12.8669 3.56008 12.8602 3.55341 12.8469 3.55341ZM5.68024 9.94008C4.99357 9.94008 4.42024 9.30675 4.42024 8.52675C4.42024 7.74675 4.98024 7.11341 5.68024 7.11341C6.38691 7.11341 6.94691 7.75341 6.94024 8.52675C6.94024 9.30675 6.38024 9.94008 5.68024 9.94008ZM10.3269 9.94008C9.64024 9.94008 9.06691 9.30675 9.06691 8.52675C9.06691 7.74675 9.62691 7.11341 10.3269 7.11341C11.0336 7.11341 11.5936 7.75341 11.5869 8.52675C11.5869 9.30675 11.0336 9.94008 10.3269 9.94008Z"
        fill="currentColor"
    ></path>
</svg>
